<?xml version="1.0" encoding="UTF-8" standalone="no"?>
<svg
   xmlns:dc="http://purl.org/dc/elements/1.1/"
   xmlns:cc="http://creativecommons.org/ns#"
   xmlns:rdf="http://www.w3.org/1999/02/22-rdf-syntax-ns#"
   xmlns:svg="http://www.w3.org/2000/svg"
   xmlns="http://www.w3.org/2000/svg"
   version="1.1"
   id="svg5091"
   viewBox="0 0 400 400.00001"
   height="400"
   width="400">
  <defs
     id="defs5093" />
  <metadata
     id="metadata5096">
    <rdf:RDF>
      <cc:Work
         rdf:about="">
        <dc:format>image/svg+xml</dc:format>
        <dc:type
           rdf:resource="http://purl.org/dc/dcmitype/StillImage" />
        <dc:title></dc:title>
      </cc:Work>
    </rdf:RDF>
  </metadata>
  <g
     transform="translate(0,-652.36216)"
     id="layer1">
    <path
       id="rect5056"
       d="M 21.4278,652.36214 C 9.5568,652.36214 0,661.91884 0,673.78984 l 0,357.14466 c 0,11.871 9.5568,21.4277 21.4278,21.4277 l 357.14449,0 c 11.871,0 21.42773,-9.5567 21.42773,-21.4277 l 0,-357.14466 c 0,-11.871 -9.55673,-21.4277 -21.42773,-21.4277 l -357.14449,0 z M 200.00002,688.04774 386.53713,852.36216 200.00002,1016.6747 13.4629,852.36216 200.00002,688.04774 Z m 0,75.41992 a 88.893425,88.893425 0 0 0 -83.24022,58.0117 c 62.5898,4.3427 114.22789,13.7257 170.68749,46.3867 a 88.893425,88.893425 0 0 0 1.44531,-15.5039 88.893425,88.893425 0 0 0 -88.89258,-88.8945 z m -85.93362,66.5781 a 88.893425,88.893425 0 0 0 -1.7578,8.4277 88.893425,88.893425 0 0 1 1.7578,-8.4277 z m -1.8261,8.8789 a 88.893425,88.893425 0 0 0 -0.8243,7.2422 88.893425,88.893425 0 0 1 0.8243,-7.2422 z m -0.8243,7.25 a 88.893425,88.893425 0 0 0 -0.3086,6.1875 88.893425,88.893425 0 0 0 88.89262,88.8926 88.893425,88.893425 0 0 0 79.39844,-49.1465 C 223.84886,858.69136 175.7455,850.31006 111.416,846.17466 Z m 176.03129,21.6953 a 88.893425,88.893425 0 0 1 -1.61524,7.2031 88.893425,88.893425 0 0 0 1.61524,-7.2031 z m -1.78125,7.8555 a 88.893425,88.893425 0 0 1 -2.64063,8.1074 88.893425,88.893425 0 0 0 2.64063,-8.1074 z"
       style="opacity:1;fill:#f7f7d0;fill-opacity:1;stroke:none;stroke-width:3;stroke-linecap:round;stroke-miterlimit:4;stroke-dasharray:none;stroke-dashoffset:0;stroke-opacity:1" />
  </g>
</svg>
