<?xml version="1.0" encoding="UTF-8" standalone="no"?>
<svg
   xmlns:dc="http://purl.org/dc/elements/1.1/"
   xmlns:cc="http://creativecommons.org/ns#"
   xmlns:rdf="http://www.w3.org/1999/02/22-rdf-syntax-ns#"
   xmlns:svg="http://www.w3.org/2000/svg"
   xmlns="http://www.w3.org/2000/svg"
   xmlns:sodipodi="http://sodipodi.sourceforge.net/DTD/sodipodi-0.dtd"
   xmlns:inkscape="http://www.inkscape.org/namespaces/inkscape"
   version="1.1"
   id="svg5091"
   viewBox="0 0 400 400.00001"
   height="400"
   width="400"
   inkscape:version="0.91 r13725"
   sodipodi:docname="br2.svg">
  <sodipodi:namedview
     pagecolor="#ffffff"
     bordercolor="#666666"
     borderopacity="1"
     objecttolerance="10"
     gridtolerance="10"
     guidetolerance="10"
     inkscape:pageopacity="0"
     inkscape:pageshadow="2"
     inkscape:window-width="1366"
     inkscape:window-height="705"
     id="namedview4141"
     showgrid="false"
     inkscape:zoom="0.47022601"
     inkscape:cx="87.803395"
     inkscape:cy="145.17051"
     inkscape:window-x="0"
     inkscape:window-y="30"
     inkscape:window-maximized="1"
     inkscape:current-layer="svg5091" />
  <defs
     id="defs5093" />
  <metadata
     id="metadata5096">
    <rdf:RDF>
      <cc:Work
         rdf:about="">
        <dc:format>image/svg+xml</dc:format>
        <dc:type
           rdf:resource="http://purl.org/dc/dcmitype/StillImage" />
        <dc:title />
      </cc:Work>
    </rdf:RDF>
  </metadata>
  <path
     inkscape:connector-curvature="0"
     style="opacity:1;fill:#f7f7d0;fill-opacity:1;stroke:none;stroke-width:3;stroke-linecap:round;stroke-miterlimit:4;stroke-dasharray:none;stroke-dashoffset:0;stroke-opacity:1"
     d="M 21.42773,1e-6 C 9.55673,1e-6 0,9.556736 0,21.427735 L 0,378.57227 C 0,390.44327 9.55673,400 21.42773,400 l 357.14454,0 C 390.44327,400 400,390.44327 400,378.57227 L 400,21.427735 C 400,9.556736 390.44327,9.9999998e-7 378.57227,9.9999998e-7 l -357.14454,0 z m 2.03906,8.458984 353.06641,0 c 8.31416,0 15.00782,6.693659 15.00782,15.007813 l 0,170.242182 L 199.99805,25.359376 8.45898,193.70898 l 0,-170.242182 c 0,-8.314154 6.69366,-15.007813 15.00781,-15.007813 z M 199.99805,35.68555 386.53516,200 199.99805,364.3125 13.46289,200 199.99805,35.68555 Z m 0,75.41992 a 88.893425,88.893425 0 0 0 -83.23828,58.01172 c 62.58981,4.3427 114.2279,13.72572 170.6875,46.38672 A 88.893425,88.893425 0 0 0 288.89258,200 88.893425,88.893425 0 0 0 199.99805,111.10547 Z m 0.74023,8.00781 c 2.31173,0.0212 4.62163,0.14019 6.92383,0.35352 41.1028,2.55249 75.4855,42.10287 73.27148,83.1875 -46.63283,-25.46928 -99.65246,-36.8251 -152.26953,-40.7168 13.43567,-25.34827 41.02429,-42.57363 69.76172,-42.8125 0.77057,-0.0147 1.54193,-0.0188 2.3125,-0.0117 z m -86.67187,58.57031 a 88.893425,88.893425 0 0 0 -1.75782,8.42774 88.893425,88.893425 0 0 1 1.75782,-8.42774 z m -1.82618,8.87891 a 88.893425,88.893425 0 0 0 -0.82421,7.24219 88.893425,88.893425 0 0 1 0.82421,-7.24219 z m -0.82421,7.25 a 88.893425,88.893425 0 0 0 -0.3086,6.1875 88.893425,88.893425 0 0 0 88.89063,88.89258 88.893425,88.893425 0 0 0 79.39843,-49.14649 C 223.84688,206.32919 175.74553,197.9479 111.41602,193.8125 Z m 7.66796,8.51758 c 51.71144,2.85396 104.39747,13.73962 149.44532,40.23047 -13.5937,23.18439 -39.64122,37.33255 -66.28516,38.35547 -42.99485,2.68348 -82.77782,-35.57811 -83.16016,-78.35547 l 0,-0.23047 z m -110.625,3.96094 191.53907,168.3496 191.54297,-168.3496 0,170.24218 c 0,8.31416 -6.69366,15.00782 -15.00782,15.00782 l -353.06641,0 c -8.31415,0 -15.00781,-6.69366 -15.00781,-15.00782 l 0,-170.24218 z m 278.98829,9.21679 a 88.893425,88.893425 0 0 1 -1.61719,7.20313 88.893425,88.893425 0 0 0 1.61719,-7.20313 z m -1.78125,7.85547 a 88.893425,88.893425 0 0 1 -2.64258,8.10742 88.893425,88.893425 0 0 0 2.64258,-8.10742 z"
     id="path4166" />
</svg>
