<?xml version="1.0" encoding="UTF-8" standalone="no"?>
<!-- Generator: Adobe Illustrator 19.1.0, SVG Export Plug-In . SVG Version: 6.00 Build 0)  -->

<svg
   xmlns:dc="http://purl.org/dc/elements/1.1/"
   xmlns:cc="http://creativecommons.org/ns#"
   xmlns:rdf="http://www.w3.org/1999/02/22-rdf-syntax-ns#"
   xmlns:svg="http://www.w3.org/2000/svg"
   xmlns="http://www.w3.org/2000/svg"
   xmlns:sodipodi="http://sodipodi.sourceforge.net/DTD/sodipodi-0.dtd"
   xmlns:inkscape="http://www.inkscape.org/namespaces/inkscape"
   version="1.1"
   id="Capa_1"
   x="0px"
   y="0px"
   viewBox="0 0 477.6 477.6"
   style="enable-background:new 0 0 477.6 477.6;"
   xml:space="preserve"
   inkscape:version="0.91 r13725"
   sodipodi:docname="chat-en.svg"><metadata
     id="metadata49"><rdf:RDF><cc:Work
         rdf:about=""><dc:format>image/svg+xml</dc:format><dc:type
           rdf:resource="http://purl.org/dc/dcmitype/StillImage" /><dc:title></dc:title></cc:Work></rdf:RDF></metadata><defs
     id="defs47" /><sodipodi:namedview
     pagecolor="#ffffff"
     bordercolor="#666666"
     borderopacity="1"
     objecttolerance="10"
     gridtolerance="10"
     guidetolerance="10"
     inkscape:pageopacity="0"
     inkscape:pageshadow="2"
     inkscape:window-width="1366"
     inkscape:window-height="705"
     id="namedview45"
     showgrid="false"
     inkscape:zoom="0.34940787"
     inkscape:cx="182.26424"
     inkscape:cy="295.48413"
     inkscape:window-x="0"
     inkscape:window-y="30"
     inkscape:window-maximized="1"
     inkscape:current-layer="Capa_1" /><path
     d="m 70.01727,70 c 45.1,-45.1 105,-70 168.8,-70 63.8,0 123.7,24.9 168.8,70 87,87 93.3,226 15.8,320.2 10.7,21.9 23.3,36.5 37.6,43.5 8.7,4.3 13.6,13.7 12.2,23.3 -1.5,9.7 -8.9,17.2 -18.6,18.7 -5.3,0.8 -11,1.3 -16.9,1.3 l 0,0 c -29.3,0 -60.1,-10.1 -85.8,-27.8 -34.6,18.6 -73.5,28.4 -113.1,28.4 -63.8,0 -123.7,-24.8 -168.8,-69.9 -45.1,-45.1 -69.9,-105.1 -69.9,-168.8 0,-63.7 24.8,-123.8 69.9,-168.9 z m 19.1,318.5 c 40,40 93.2,62 149.7,62 37.8,0 74.9,-10.1 107.2,-29.1 2.1,-1.2 4.5,-1.9 6.8,-1.9 2.9,0 5.9,1 8.3,2.8 30.6,23.7 61.4,27.2 74.9,27.5 -16.1,-12 -29.6,-30.6 -40.9,-56.5 -2.1,-4.8 -1.2,-10.4 2.3,-14.4 74,-83.6 70.1,-211 -8.9,-290 -40,-40 -93.2,-62 -149.7,-62 -56.5,0 -109.7,22 -149.7,62 -82.6,82.7 -82.6,217.1 0,299.6 z"
     id="path7"
     inkscape:connector-curvature="0"
     style="fill:#f7f7d0;fill-opacity:1" /><g
     id="g15" /><g
     id="g17" /><g
     id="g19" /><g
     id="g21" /><g
     id="g23" /><g
     id="g25" /><g
     id="g27" /><g
     id="g29" /><g
     id="g31" /><g
     id="g33" /><g
     id="g35" /><g
     id="g37" /><g
     id="g39" /><g
     id="g41" /><g
     id="g43" /><text
     xml:space="preserve"
     style="font-style:normal;font-variant:normal;font-weight:900;font-stretch:normal;font-size:237.44802856px;line-height:125%;font-family:Chivo;-inkscape-font-specification:'Chivo Heavy';letter-spacing:0px;word-spacing:0px;fill:#f7f7d0;fill-opacity:1;stroke:none;stroke-width:1px;stroke-linecap:butt;stroke-linejoin:miter;stroke-opacity:1"
     x="98.639015"
     y="305.68448"
     id="text4186"
     sodipodi:linespacing="125%"><tspan
       sodipodi:role="line"
       id="tspan4188"
       x="98.639015"
       y="305.68448">en</tspan></text>
</svg>