<?xml version="1.0" encoding="UTF-8" standalone="no"?>
<!-- Generator: Adobe Illustrator 19.0.0, SVG Export Plug-In . SVG Version: 6.00 Build 0)  -->

<svg
   xmlns:dc="http://purl.org/dc/elements/1.1/"
   xmlns:cc="http://creativecommons.org/ns#"
   xmlns:rdf="http://www.w3.org/1999/02/22-rdf-syntax-ns#"
   xmlns:svg="http://www.w3.org/2000/svg"
   xmlns="http://www.w3.org/2000/svg"
   xmlns:sodipodi="http://sodipodi.sourceforge.net/DTD/sodipodi-0.dtd"
   xmlns:inkscape="http://www.inkscape.org/namespaces/inkscape"
   version="1.1"
   id="Capa_1"
   x="0px"
   y="0px"
   viewBox="0 0 512 512"
   style="enable-background:new 0 0 512 512;"
   xml:space="preserve"
   inkscape:version="0.91 r13725"
   sodipodi:docname="paint-palette.svg"><metadata
     id="metadata85"><rdf:RDF><cc:Work
         rdf:about=""><dc:format>image/svg+xml</dc:format><dc:type
           rdf:resource="http://purl.org/dc/dcmitype/StillImage" /></cc:Work></rdf:RDF></metadata><defs
     id="defs83" /><sodipodi:namedview
     pagecolor="#ffffff"
     bordercolor="#666666"
     borderopacity="1"
     objecttolerance="10"
     gridtolerance="10"
     guidetolerance="10"
     inkscape:pageopacity="0"
     inkscape:pageshadow="2"
     inkscape:window-width="682"
     inkscape:window-height="480"
     id="namedview81"
     showgrid="false"
     inkscape:zoom="0.23046875"
     inkscape:cx="528.31016"
     inkscape:cy="283.24543"
     inkscape:window-x="0"
     inkscape:window-y="30"
     inkscape:window-maximized="0"
     inkscape:current-layer="Capa_1" /><g
     id="g3"
     style="fill:#f7f7d0;fill-opacity:1"><g
       id="g5"
       style="fill:#f7f7d0;fill-opacity:1"><circle
         cx="337.921"
         cy="236"
         r="10"
         id="circle7"
         style="fill:#f7f7d0;fill-opacity:1" /></g></g><g
     id="g9"
     style="fill:#f7f7d0;fill-opacity:1"><g
       id="g11"
       style="fill:#f7f7d0;fill-opacity:1"><path
         d="M339.637,278.848c-5.459-0.811-10.548,2.964-11.357,8.427c-2.733,18.455-18.333,33.761-41.729,40.945    c-25.007,7.679-59.718,5.105-80.893-17.954c-3.736-4.068-10.062-4.336-14.129-0.602c-4.068,3.736-4.337,10.062-0.602,14.129    c12.258,13.349,28.907,22.447,48.147,26.31c6.794,1.364,13.842,2.041,20.936,2.041c10.958,0,22.024-1.615,32.412-4.805    c30.95-9.503,51.751-30.861,55.642-57.134C348.873,284.742,345.1,279.657,339.637,278.848z"
         id="path13"
         style="fill:#f7f7d0;fill-opacity:1" /></g></g><path
     d="m 478.626,190.411 c -18.176,-21.071 -43.262,-34.733 -73.458,-40.22 28.91,-19.51 53.846,-38.926 71.626,-55.868 27.109,-25.831 36.199,-43.983 28.609,-57.122 -8.446,-14.634 -32.827,-14.533 -76.733,0.321 -37.097,12.55 -83.311,34.347 -130.127,61.377 -8.087,4.668 -16.098,9.448 -23.936,14.265 -5.813,-16.417 -1.979,-35.17 10.847,-51.431 9.607,-12.18 11.752,-27.65 5.599,-40.375 C 284.603,8.021 270.447,0.036 253.162,0 l -0.47,0 C 191.686,0 132.015,24.071 84.672,67.779 37.27,111.541 8.25,169.473 2.958,230.902 -3.409,304.882 20.239,375.216 69.544,428.947 117.978,481.729 186.643,512 257.932,512 c 38.38,0 74.41,-7.022 107.087,-20.873 29.88,-12.665 56.414,-30.749 78.866,-53.752 20.817,-21.329 37.23,-45.882 48.783,-72.979 10.994,-25.784 17,-53.108 17.372,-79.017 0.541,-37.678 -10.322,-70.517 -31.414,-94.968 z m -202.85,-54.423 c 10.584,-6.675 21.607,-13.326 32.766,-19.768 43.286,-24.992 86.39,-45.577 121.373,-57.964 38.51,-13.635 54.277,-12.745 57.953,-10.985 -0.318,2.327 -3.208,12.68 -28.479,35.952 -21.102,19.433 -51.917,42.286 -86.768,64.349 -11.017,6.977 -22.483,13.911 -34.078,20.607 -15.985,9.226 -31.958,17.853 -47.635,25.752 -3.128,-9.129 -7.137,-17.988 -12.016,-26.44 -4.729,-8.191 -10.214,-15.881 -16.345,-22.996 4.339,-2.844 8.754,-5.688 13.229,-8.507 z m -2.986,66.814 c -28.237,13.391 -54.147,23.6 -74.838,29.522 -1.077,-5.173 -2.971,-10.173 -5.658,-14.831 -2.547,-4.415 -5.742,-8.362 -9.435,-11.766 15.49,-14.949 37.292,-32.269 62.964,-49.988 5.96,6.661 11.244,13.947 15.749,21.75 4.659,8.07 8.409,16.558 11.218,25.313 z m 217.252,82.29 C 488.616,384.6 399.469,492 257.932,492 192.23,492 128.937,464.09 84.281,415.426 38.808,365.872 17.005,300.949 22.885,232.618 32.984,115.38 136.075,20 252.692,20 l 0.449,0 c 9.567,0.02 16.823,3.688 19.906,10.065 2.835,5.862 1.603,13.07 -3.297,19.282 -18.023,22.85 -22.543,50.953 -12.36,74.648 -5.361,3.454 -10.63,6.923 -15.721,10.364 -0.024,0.016 -0.048,0.032 -0.071,0.048 -31.799,21.457 -58.651,42.8 -76.517,60.761 -13.55,-4.631 -28.438,-3.281 -41.092,4.023 -20.776,12.001 -48.056,67.926 -53.313,79.015 -1.408,2.968 -1.267,6.439 0.375,9.284 1.643,2.845 4.578,4.702 7.852,4.968 5.527,0.448 21.222,1.58 38.691,1.58 21.198,0 45.006,-1.668 56.396,-8.247 12.338,-7.122 20.89,-19.022 23.852,-32.702 24.523,-6.437 56.564,-19.03 91.266,-35.937 19.443,-9.463 39.439,-20.112 59.435,-31.652 10.143,-5.858 20.171,-11.897 29.917,-17.988 0.059,0.003 0.116,0.012 0.175,0.014 83.349,2.39 112.2,62.298 111.407,117.566 z m -311.1,-40.722 c -0.64,10.057 -6.228,19.065 -14.952,24.101 -9.457,5.463 -41.945,6.199 -68.62,4.979 12.275,-23.704 29.154,-51.47 38.621,-56.938 8.938,-5.16 19.744,-5.386 28.912,-0.603 5.039,2.624 9.211,6.627 12.067,11.578 2.971,5.15 4.344,10.988 3.972,16.883 z"
     id="path19"
     style="fill:#f7f7d0;fill-opacity:1"
     inkscape:connector-curvature="0" /><g
     id="g21"
     style="fill:#f7f7d0;fill-opacity:1"><g
       id="g23"
       style="fill:#f7f7d0;fill-opacity:1"><path
         d="M177.922,61.84c-22.056,0-40,17.944-40,40c0,22.056,17.944,40,40,40c22.056,0,40-17.944,40-40    C217.922,79.784,199.978,61.84,177.922,61.84z M177.922,121.84c-11.028,0-20-8.972-20-20c0-11.028,8.972-20,20-20s20,8.972,20,20    C197.922,112.868,188.95,121.84,177.922,121.84z"
         id="path25"
         style="fill:#f7f7d0;fill-opacity:1" /></g></g><g
     id="g27"
     style="fill:#f7f7d0;fill-opacity:1"><g
       id="g29"
       style="fill:#f7f7d0;fill-opacity:1"><path
         d="M127.922,330.55c-22.056,0-40,17.944-40,40c0,22.056,17.944,40,40,40c22.056,0,40-17.944,40-40    C167.922,348.494,149.978,330.55,127.922,330.55z M127.922,390.55c-11.028,0-20-8.972-20-20s8.972-20,20-20s20,8.972,20,20    S138.95,390.55,127.922,390.55z"
         id="path31"
         style="fill:#f7f7d0;fill-opacity:1" /></g></g><g
     id="g33"
     style="fill:#f7f7d0;fill-opacity:1"><g
       id="g35"
       style="fill:#f7f7d0;fill-opacity:1"><path
         d="M227.922,390.55c-22.056,0-40,17.944-40,40c0,22.056,17.944,40,40,40c22.056,0,40-17.944,40-40    C267.922,408.494,249.978,390.55,227.922,390.55z M227.922,450.55c-11.028,0-20-8.972-20-20s8.972-20,20-20s20,8.972,20,20    S238.95,450.55,227.922,450.55z"
         id="path37"
         style="fill:#f7f7d0;fill-opacity:1" /></g></g><g
     id="g39"
     style="fill:#f7f7d0;fill-opacity:1"><g
       id="g41"
       style="fill:#f7f7d0;fill-opacity:1"><path
         d="M347.922,370.55c-22.056,0-40,17.944-40,40c0,22.056,17.944,40,40,40c22.056,0,40-17.944,40-40    C387.922,388.494,369.978,370.55,347.922,370.55z M347.922,430.55c-11.028,0-20-8.972-20-20s8.972-20,20-20s20,8.972,20,20    S358.95,430.55,347.922,430.55z"
         id="path43"
         style="fill:#f7f7d0;fill-opacity:1" /></g></g><g
     id="g45"
     style="fill:#f7f7d0;fill-opacity:1"><g
       id="g47"
       style="fill:#f7f7d0;fill-opacity:1"><path
         d="M427.922,270.55c-22.056,0-40,17.944-40,40c0,22.056,17.944,40,40,40c22.056,0,40-17.944,40-40    C467.922,288.494,449.978,270.55,427.922,270.55z M427.922,330.55c-11.028,0-20-8.972-20-20s8.972-20,20-20s20,8.972,20,20    S438.95,330.55,427.922,330.55z"
         id="path49"
         style="fill:#f7f7d0;fill-opacity:1" /></g></g><g
     id="g51" /><g
     id="g53" /><g
     id="g55" /><g
     id="g57" /><g
     id="g59" /><g
     id="g61" /><g
     id="g63" /><g
     id="g65" /><g
     id="g67" /><g
     id="g69" /><g
     id="g71" /><g
     id="g73" /><g
     id="g75" /><g
     id="g77" /><g
     id="g79" /></svg>