<?xml version="1.0" encoding="UTF-8" standalone="no"?>
<!-- Generator: Adobe Illustrator 19.0.0, SVG Export Plug-In . SVG Version: 6.00 Build 0)  -->

<svg
   xmlns:dc="http://purl.org/dc/elements/1.1/"
   xmlns:cc="http://creativecommons.org/ns#"
   xmlns:rdf="http://www.w3.org/1999/02/22-rdf-syntax-ns#"
   xmlns:svg="http://www.w3.org/2000/svg"
   xmlns="http://www.w3.org/2000/svg"
   xmlns:sodipodi="http://sodipodi.sourceforge.net/DTD/sodipodi-0.dtd"
   xmlns:inkscape="http://www.inkscape.org/namespaces/inkscape"
   version="1.1"
   id="Capa_1"
   x="0px"
   y="0px"
   viewBox="0 0 512 512"
   style="enable-background:new 0 0 512 512;"
   xml:space="preserve"
   inkscape:version="0.91 r13725"
   sodipodi:docname="printer.svg"><metadata
     id="metadata61"><rdf:RDF><cc:Work
         rdf:about=""><dc:format>image/svg+xml</dc:format><dc:type
           rdf:resource="http://purl.org/dc/dcmitype/StillImage" /></cc:Work></rdf:RDF></metadata><defs
     id="defs59" /><sodipodi:namedview
     pagecolor="#ffffff"
     bordercolor="#666666"
     borderopacity="1"
     objecttolerance="10"
     gridtolerance="10"
     guidetolerance="10"
     inkscape:pageopacity="0"
     inkscape:pageshadow="2"
     inkscape:window-width="682"
     inkscape:window-height="480"
     id="namedview57"
     showgrid="false"
     inkscape:zoom="0.4609375"
     inkscape:cx="256"
     inkscape:cy="256"
     inkscape:window-x="0"
     inkscape:window-y="30"
     inkscape:window-maximized="0"
     inkscape:current-layer="Capa_1" /><path
     d="M 482,152.58 482,135 c 0,-24.813 -20.187,-45 -45,-45 l -15,0 C 422,76.766 418.766,65.553 408.82,55.607 L 366.393,13.18 C 357.894,4.681 346.594,0 334.574,0 L 105,0 C 96.716,0 90,6.716 90,15 l 0,75 -15,0 c -24.813,0 -45,20.187 -45,45 l 0,17.58 C 12.541,158.772 0,175.445 0,195 l 0,152 c 0,24.813 20.187,45 45,45 l 45,0 0,105 c 0,8.284 6.716,15 15,15 l 302,0 c 8.284,0 15,-6.716 15,-15 l 0,-105 45,0 c 24.813,0 45,-20.187 45,-45 l 0,-152 c 0,-19.555 -12.541,-36.228 -30,-42.42 z M 422,120 l 15,0 c 8.271,0 15,6.729 15,15 l 0,15 -30,0 0,-30 z M 332,30 c 2.837,0 8.3,-0.487 13.18,4.393 L 387.607,76.82 C 392.402,81.615 392,86.903 392,90 l -60,0 0,-60 z m -212,0 182,0 0,75 c 0,8.284 6.716,15 15,15 l 75,0 0,30 -272,0 0,-120 z M 60,135 c 0,-8.271 6.729,-15 15,-15 l 15,0 0,30 -30,0 0,-15 z m 332,347 -272,0 0,-150 272,0 0,150 z m 90,-135 c 0,8.271 -6.729,15 -15,15 l -45,0 0,-30 15,0 c 8.284,0 15,-6.716 15,-15 0,-8.284 -6.716,-15 -15,-15 l -362,0 c -8.284,0 -15,6.716 -15,15 0,8.284 6.716,15 15,15 l 15,0 0,30 -45,0 c -8.271,0 -15,-6.729 -15,-15 l 0,-152 c 0,-8.271 6.729,-15 15,-15 l 422,0 c 8.271,0 15,6.729 15,15 l 0,152 z"
     id="path7"
     style="fill:#f7f7d0;fill-opacity:1"
     inkscape:connector-curvature="0" /><g
     id="g9"
     style="fill:#f7f7d0;fill-opacity:1"><g
       id="g11"
       style="fill:#f7f7d0;fill-opacity:1"><path
         d="M135,210H75c-8.284,0-15,6.716-15,15s6.716,15,15,15h60c8.284,0,15-6.716,15-15S143.284,210,135,210z"
         id="path13"
         style="fill:#f7f7d0;fill-opacity:1" /></g></g><g
     id="g15"
     style="fill:#f7f7d0;fill-opacity:1"><g
       id="g17"
       style="fill:#f7f7d0;fill-opacity:1"><path
         d="M347,362H165c-8.284,0-15,6.716-15,15s6.716,15,15,15h182c8.284,0,15-6.716,15-15S355.284,362,347,362z"
         id="path19"
         style="fill:#f7f7d0;fill-opacity:1" /></g></g><g
     id="g21"><g
       id="g23"><path
         d="M347,422H165c-8.284,0-15,6.716-15,15s6.716,15,15,15h182c8.284,0,15-6.716,15-15S355.284,422,347,422z"
         id="path25"
         style="fill:#f7f7d0;fill-opacity:1" /></g></g><g
     id="g27" /><g
     id="g29" /><g
     id="g31" /><g
     id="g33" /><g
     id="g35" /><g
     id="g37" /><g
     id="g39" /><g
     id="g41" /><g
     id="g43" /><g
     id="g45" /><g
     id="g47" /><g
     id="g49" /><g
     id="g51" /><g
     id="g53" /><g
     id="g55" /></svg>