<?xml version="1.0" encoding="UTF-8" standalone="no"?>
<svg
   xmlns:dc="http://purl.org/dc/elements/1.1/"
   xmlns:cc="http://creativecommons.org/ns#"
   xmlns:rdf="http://www.w3.org/1999/02/22-rdf-syntax-ns#"
   xmlns:svg="http://www.w3.org/2000/svg"
   xmlns="http://www.w3.org/2000/svg"
   version="1.1"
   id="svg5091"
   viewBox="0 0 400 400.00001"
   height="400"
   width="400">
  <defs
     id="defs5093" />
  <metadata
     id="metadata5096">
    <rdf:RDF>
      <cc:Work
         rdf:about="">
        <dc:format>image/svg+xml</dc:format>
        <dc:type
           rdf:resource="http://purl.org/dc/dcmitype/StillImage" />
        <dc:title></dc:title>
      </cc:Work>
    </rdf:RDF>
  </metadata>
  <g
     transform="translate(0,-652.36216)"
     id="layer1">
    <path
       id="rect4850"
       d="M 15.8008,652.36206 C 7.047,652.36206 0,659.41096 0,668.16476 l 0,1.6758 0,18.8867 0,36.3633 0,36.3633 0,36.3632 0,36.3633 0,36.3653 0,18.5468 0,17.8164 400.00004,0 0,-36.3632 -145.78906,0 0,-36.3653 145.78906,0 0,-36.3633 -145.78906,0 0,-36.3632 145.78906,0 0,-36.3633 -145.78906,0 0,-36.3633 145.78906,0 0,-20.5625 c 0,-8.7538 -7.04688,-15.8027 -15.80078,-15.8027 l -147.46875,0 -219.25001,0 -1.6797,0 z m 12.6328,19.5488 4.5684,14.1308 14.7578,-0.1621 -12.0273,8.7129 4.7148,13.9844 -12.0019,-8.7461 -11.8457,8.8067 4.6113,-14.1192 -12.0352,-8.543 14.8516,0.022 4.4062,-14.0859 z m 45.752,0 4.5684,14.1308 14.7597,-0.1621 -12.0293,8.7129 4.7149,13.9844 -12.002,-8.7461 -11.8437,8.8067 4.6093,-14.1192 -12.0351,-8.543 14.8515,0.022 4.4063,-14.0859 z m 52.8242,0 4.5684,14.1308 14.7578,-0.1621 -12.0274,8.7129 4.7149,13.9844 -12.002,-8.7461 -11.8437,8.8067 4.6094,-14.1192 -12.0352,-8.543 14.8516,0.022 4.4062,-14.0859 z m 52.9453,0 4.5684,14.1308 14.75975,-0.1621 -12.02735,8.7129 4.71485,13.9844 -12.00195,-8.7461 -11.8457,8.8067 4.6113,-14.1192 -12.0351,-8.543 14.8496,0.022 4.4062,-14.0859 z m 47.47854,0 4.56836,14.1308 14.75781,-0.1621 -12.02734,8.7129 4.71484,13.9844 -12.00195,-8.7461 -11.84375,8.8067 4.60937,-14.1192 -12.03516,-8.543 14.85157,0.022 4.40625,-14.0859 z m -179.66014,45.457 4.5683,14.1309 14.7598,-0.1621 -12.0293,8.7109 4.7149,13.9863 -12.002,-8.7461 -11.8438,8.8067 4.6114,-14.1192 -12.0371,-8.5429 14.8515,0.022 4.4063,-14.086 z m 52.8242,0 4.5684,14.1309 14.7578,-0.1621 -12.0274,8.7109 4.7149,13.9863 -12.002,-8.7461 -11.8437,8.8067 4.6093,-14.1192 -12.0351,-8.5429 14.8515,0.022 4.4063,-14.086 z m 52.9473,0 4.5683,14.1309 14.7578,-0.1621 -12.0273,8.7109 4.7148,13.9863 -12.0019,-8.7461 -11.8457,8.8067 4.6113,-14.1192 -12.0351,-8.5429 14.8515,0.022 4.4063,-14.086 z m 52.82223,0 4.56836,14.1309 14.75977,-0.1621 -12.0293,8.7109 4.7168,13.9863 -12.00196,-8.7461 -11.8457,8.8067 4.61133,-14.1192 -12.03713,-8.5429 14.85158,0.022 4.40625,-14.086 z m -177.93363,46.4668 4.5684,14.1309 14.7578,-0.1621 -12.0273,8.7129 4.7148,13.9863 -12.0019,-8.7481 -11.8457,8.8067 4.6113,-14.1192 -12.0352,-8.5429 14.8516,0.023 4.4062,-14.0879 z m 45.752,0 4.5684,14.1309 14.7597,-0.1621 -12.0293,8.7129 4.7149,13.9863 -12.002,-8.7481 -11.8437,8.8067 4.6093,-14.1192 -12.0351,-8.5429 14.8515,0.023 4.4063,-14.0879 z m 52.8242,0 4.5684,14.1309 14.7578,-0.1621 -12.0274,8.7129 4.7149,13.9863 -12.002,-8.7481 -11.8437,8.8067 4.6094,-14.1192 -12.0352,-8.5429 14.8516,0.023 4.4062,-14.0879 z m 52.9453,0 4.5684,14.1309 14.75975,-0.1621 -12.02735,8.7129 4.71485,13.9863 -12.00195,-8.7481 -11.8457,8.8067 4.6113,-14.1192 -12.0351,-8.5429 14.8496,0.023 4.4062,-14.0879 z m 47.47854,0 4.56836,14.1309 14.75781,-0.1621 -12.02734,8.7129 4.71484,13.9863 -12.00195,-8.7481 -11.84375,8.8067 4.60937,-14.1192 -12.03516,-8.5429 14.85157,0.023 4.40625,-14.0879 z m -179.66014,47.4766 4.5683,14.1328 14.7598,-0.1621 -12.0293,8.7109 4.7149,13.9864 -12.002,-8.7481 -11.8438,8.8066 4.6114,-14.1171 -12.0371,-8.545 14.8515,0.024 4.4063,-14.0879 z m 52.8242,0 4.5684,14.1328 14.7578,-0.1621 -12.0274,8.7109 4.7149,13.9864 -12.002,-8.7481 -11.8437,8.8066 4.6093,-14.1171 -12.0351,-8.545 14.8515,0.024 4.4063,-14.0879 z m 52.9473,0 4.5683,14.1328 14.7578,-0.1621 -12.0273,8.7109 4.7148,13.9864 -12.0019,-8.7481 -11.8457,8.8066 4.6113,-14.1171 -12.0351,-8.545 14.8515,0.024 4.4063,-14.0879 z m 52.82223,0 4.56836,14.1328 14.75977,-0.1621 -12.0293,8.7109 4.7168,13.9864 -12.00196,-8.7481 -11.8457,8.8066 4.61133,-14.1171 -12.03713,-8.545 14.85158,0.024 4.40625,-14.0879 z m -177.93363,42.0293 4.5684,14.1308 14.7578,-0.1621 -12.0273,8.711 4.7148,13.9863 -12.0019,-8.7481 -11.8457,8.8067 4.6113,-14.1172 -12.0352,-8.543 14.8516,0.021 4.4062,-14.0859 z m 45.752,0 4.5684,14.1308 14.7597,-0.1621 -12.0293,8.711 4.7149,13.9863 -12.002,-8.7481 -11.8437,8.8067 4.6093,-14.1172 -12.0351,-8.543 14.8515,0.021 4.4063,-14.0859 z m 52.8242,0 4.5684,14.1308 14.7578,-0.1621 -12.0274,8.711 4.7149,13.9863 -12.002,-8.7481 -11.8437,8.8067 4.6094,-14.1172 -12.0352,-8.543 14.8516,0.021 4.4062,-14.0859 z m 52.9453,0 4.5684,14.1308 14.75975,-0.1621 -12.02735,8.711 4.71485,13.9863 -12.00195,-8.7481 -11.8457,8.8067 4.6113,-14.1172 -12.0351,-8.543 14.8496,0.021 4.4062,-14.0859 z m 47.47854,0 4.56836,14.1308 14.75781,-0.1621 -12.02734,8.711 4.71484,13.9863 -12.00195,-8.7481 -11.84375,8.8067 4.60937,-14.1172 -12.03516,-8.543 14.85157,0.021 4.40625,-14.0859 z M 0,943.27216 l 0,36.3633 400.00004,0 0,-36.3633 -400.00004,0 z m 0,72.72674 0,20.5625 c 0,8.7538 7.047,15.8008 15.8008,15.8008 l 368.39846,0 c 8.7539,0 15.80078,-7.047 15.80078,-15.8008 l 0,-20.5625 -400.00004,0 z"
       style="opacity:1;fill:#f7f7d0;fill-opacity:1;stroke:none;stroke-width:2.61306381;stroke-linecap:round;stroke-miterlimit:4;stroke-dasharray:none;stroke-dashoffset:0;stroke-opacity:1" />
  </g>
</svg>
